<svg width="24" height="24" viewBox="0 0 24 24" fill="none" xmlns="http://www.w3.org/2000/svg">
<path fill-rule="evenodd" clip-rule="evenodd" d="M13.9722 7.16132C13.9722 5.98293 13.0068 5.02472 11.8199 5.02472C10.634 5.02472 9.66768 5.98293 9.66768 7.16132C9.66768 8.33878 10.634 9.29761 11.8199 9.29761C13.0068 9.29761 13.9722 8.33878 13.9722 7.16132ZM17.0181 7.16132C17.0181 10.0066 14.6873 12.3211 11.82 12.3211C8.95336 12.3211 6.62195 10.0066 6.62195 7.16132C6.62195 4.31509 8.95336 2 11.82 2C14.6873 2 17.0181 4.31509 17.0181 7.16132ZM16.955 15.2925C16.0151 15.8786 14.9946 16.2943 13.9365 16.5336L16.8424 19.419C17.4377 20.0088 17.4377 20.9667 16.8424 21.5572C16.2477 22.1476 15.2839 22.1476 14.6898 21.5572L11.8328 18.7218L8.97825 21.5572C8.68061 21.8521 8.29059 21.9997 7.90057 21.9997C7.51117 21.9997 7.12177 21.8521 6.82413 21.5572C6.22945 20.9667 6.22945 20.0095 6.8235 19.419L9.72968 16.5336C8.67159 16.2943 7.65113 15.878 6.71123 15.2925C5.99992 14.8472 5.78625 13.9143 6.23443 13.2075C6.68137 12.4997 7.62127 12.2866 8.33382 12.7319C10.4618 14.061 13.2032 14.0613 15.3324 12.7319C16.045 12.2866 16.9845 12.4997 17.4324 13.2075C17.8806 13.9137 17.6663 14.8472 16.955 15.2925Z" fill="#4E4C4C"/>
</svg>
