<svg width="280" height="44" viewBox="0 0 280 44" fill="none" xmlns="http://www.w3.org/2000/svg">
<path d="M273.686 20.0289C273.686 20.313 273.796 20.5357 274.123 20.5357C274.451 20.5357 274.545 20.373 274.545 20.0289V18.7619C274.679 18.7712 274.813 18.7712 274.947 18.7619H275.276L276.141 20.1556C276.396 20.5664 276.662 20.581 276.891 20.4597C277.12 20.3383 277.146 20.0343 276.963 19.7448L276.141 18.5739C276.408 18.4749 276.635 18.2957 276.79 18.0622C276.944 17.8288 277.018 17.5534 277.001 17.2763C277.001 16.3134 276.229 15.8666 275.208 15.8666C274.856 15.8696 274.506 15.9144 274.166 16C273.816 16.1066 273.692 16.2333 273.692 16.7508V20.0463L273.686 20.0289ZM270.559 18.2285C270.549 18.8382 270.663 19.4438 270.895 20.0101C271.128 20.5764 271.474 21.0919 271.913 21.5268C272.352 21.9616 272.876 22.3069 273.454 22.5427C274.032 22.7784 274.653 22.8998 275.28 22.8998C275.906 22.8998 276.527 22.7784 277.105 22.5427C277.683 22.3069 278.207 21.9616 278.646 21.5268C279.085 21.0919 279.431 20.5764 279.664 20.0101C279.896 19.4438 280.01 18.8382 280 18.2285C280.01 17.6188 279.896 17.0132 279.664 16.4469C279.431 15.8806 279.085 15.365 278.646 14.9302C278.207 14.4954 277.683 14.15 277.105 13.9143C276.527 13.6785 275.906 13.5571 275.28 13.5571C274.653 13.5571 274.032 13.6785 273.454 13.9143C272.876 14.15 272.352 14.4954 271.913 14.9302C271.474 15.365 271.128 15.8806 270.895 16.4469C270.663 17.0132 270.549 17.6188 270.559 18.2285ZM271.882 18.2285C271.911 17.5028 272.184 16.8065 272.659 16.2465C273.135 15.6865 273.785 15.2938 274.512 15.1286C275.239 14.9635 276.002 15.0351 276.683 15.3325C277.364 15.6299 277.925 16.1365 278.282 16.7747C278.638 17.4128 278.769 18.1471 278.655 18.8647C278.541 19.5823 278.187 20.2436 277.649 20.747C277.111 21.2504 276.418 21.5679 275.677 21.651C274.935 21.734 274.186 21.5778 273.545 21.2065C273.018 20.9016 272.585 20.4639 272.293 19.9398C272 19.4157 271.858 18.8245 271.882 18.2285ZM275.061 18.0511C274.887 18.0598 274.713 18.0598 274.54 18.0511V16.6774C274.731 16.632 274.927 16.6083 275.124 16.6068C275.645 16.6068 276.093 16.7481 276.093 17.2816C276.093 17.8151 275.801 18.0471 275.051 18.0471L275.061 18.0511Z" fill="#4E4C4C"/>
<path d="M28.1006 31.6675C28.1182 31.553 28.1654 31.4447 28.2377 31.3528L28.1006 31.6675ZM35.9373 36.422C35.869 36.274 35.8571 36.1073 35.9035 35.9516C35.9499 35.7958 36.0516 35.6612 36.1906 35.5716C36.3295 35.4821 36.4967 35.4435 36.6622 35.4627C36.8277 35.4819 36.9808 35.5577 37.0942 35.6765L37.1408 35.7325L37.2038 35.8192C37.3147 35.9832 37.3742 36.175 37.3752 36.3713C37.3783 36.4086 37.3783 36.4461 37.3752 36.4833C37.308 37.0462 36.7337 37.4969 35.8482 37.7356C34.973 37.9598 34.0705 38.0671 33.1656 38.0544C32.2586 38.0657 31.3542 37.9566 30.4775 37.7303C29.5344 37.4636 28.9464 36.9848 28.9464 36.3713C28.9431 36.334 28.9431 36.2966 28.9464 36.2593C28.9584 36.1561 28.9866 36.0554 29.03 35.9606V35.9152C29.078 35.8256 29.1374 35.7423 29.2068 35.6672C29.3203 35.5505 29.4724 35.4763 29.6364 35.4578C29.8005 35.4393 29.966 35.4775 30.104 35.5658C30.2419 35.654 30.3436 35.7867 30.3911 35.9406C30.4386 36.0945 30.4289 36.2597 30.3637 36.4073C30.5209 36.39 30.6801 36.4022 30.8325 36.4433C31.5806 36.6326 32.3516 36.7224 33.1245 36.7101C33.906 36.7249 34.686 36.6352 35.4424 36.4433C35.595 36.4032 35.754 36.391 35.9112 36.4073L35.9373 36.422ZM98.1135 15.6037H92.9046V29.7911C92.9081 30.0478 92.8301 30.2993 92.6812 30.5113C92.6016 30.6221 92.5006 30.7168 92.3837 30.79C92.195 30.9052 91.976 30.965 91.7532 30.962C91.5907 30.9663 91.4294 30.9353 91.2807 30.8714C91.1321 30.8075 90.9999 30.7123 90.8937 30.5926C90.7036 30.3674 90.602 30.0838 90.6072 29.7924V15.6037H85.4477C85.306 15.6072 85.1651 15.5826 85.0335 15.5313C84.902 15.48 84.7826 15.4031 84.6826 15.3053C84.5827 15.2076 84.5043 15.091 84.4522 14.9628C84.4002 14.8345 84.3755 14.6973 84.3799 14.5595C84.3794 14.2875 84.4876 14.0259 84.6814 13.83C84.7817 13.7289 84.9024 13.6492 85.036 13.596C85.1695 13.5427 85.313 13.517 85.4573 13.5206H98.1395C98.2812 13.517 98.4221 13.5417 98.5537 13.593C98.6852 13.6443 98.8046 13.7212 98.9046 13.8189C99.0046 13.9167 99.083 14.0332 99.135 14.1615C99.1871 14.2897 99.2117 14.427 99.2074 14.5648C99.2103 14.7023 99.1852 14.839 99.1334 14.967C99.0816 15.0949 99.0043 15.2117 98.9058 15.3103C98.8036 15.4065 98.6827 15.482 98.5502 15.5324C98.4177 15.5828 98.2763 15.607 98.1341 15.6037H98.1135ZM116.016 30.978H106.736C106.567 30.9804 106.4 30.9502 106.243 30.8894C106.087 30.8285 105.944 30.738 105.824 30.6233C105.708 30.5101 105.617 30.3757 105.555 30.2277C105.494 30.0798 105.463 29.9214 105.465 29.7617V14.7008C105.461 14.4014 105.571 14.1111 105.772 13.8846C105.885 13.7651 106.023 13.6706 106.177 13.6075C106.33 13.5445 106.496 13.5143 106.663 13.5192H115.744C115.886 13.5157 116.027 13.5404 116.158 13.5917C116.29 13.643 116.409 13.7198 116.509 13.8176C116.609 13.9153 116.688 14.0319 116.74 14.1602C116.792 14.2884 116.816 14.4256 116.812 14.5635C116.815 14.701 116.79 14.8377 116.738 14.9656C116.686 15.0936 116.609 15.2103 116.51 15.309C116.408 15.4052 116.287 15.4807 116.155 15.5311C116.022 15.5814 115.881 15.6057 115.739 15.6024H107.768V20.829H114.249C114.391 20.8267 114.533 20.853 114.665 20.9062C114.797 20.9595 114.916 21.0385 115.015 21.1384C115.21 21.3357 115.318 21.5994 115.317 21.8732C115.32 22.011 115.295 22.1482 115.242 22.2761C115.189 22.4041 115.11 22.5203 115.01 22.6176C114.909 22.7148 114.79 22.7911 114.658 22.8417C114.526 22.8924 114.385 22.9163 114.243 22.9121H107.768V28.8935H116.016C116.158 28.8913 116.3 28.9176 116.432 28.9708C116.564 29.0241 116.683 29.1031 116.782 29.2029C116.977 29.4002 117.085 29.6639 117.083 29.9378C117.087 30.0756 117.062 30.2127 117.009 30.3407C116.956 30.4687 116.877 30.5849 116.777 30.6821C116.676 30.7794 116.556 30.8557 116.425 30.9063C116.293 30.957 116.152 30.9809 116.01 30.9767L116.016 30.978ZM126.243 21.0023H135.746V14.6702C135.741 14.3826 135.841 14.1025 136.027 13.8793C136.134 13.7589 136.267 13.6633 136.417 13.5993C136.566 13.5354 136.729 13.5049 136.892 13.5099C137.049 13.5043 137.206 13.5312 137.352 13.5887C137.498 13.6463 137.629 13.7333 137.738 13.8439C137.847 13.9545 137.93 14.0863 137.983 14.2305C138.036 14.3748 138.056 14.5282 138.044 14.6808V29.8071C138.047 30.0638 137.969 30.3153 137.82 30.5273C137.741 30.6386 137.64 30.7333 137.523 30.806C137.334 30.9212 137.115 30.981 136.892 30.978C136.73 30.9823 136.568 30.9513 136.42 30.8874C136.271 30.8235 136.139 30.7283 136.033 30.6086C135.842 30.3837 135.741 30.0999 135.746 29.8084V23.0948H126.247V29.8071C126.252 30.0947 126.152 30.3747 125.966 30.5979C125.859 30.7183 125.726 30.814 125.576 30.8779C125.427 30.9418 125.264 30.9724 125.101 30.9674C124.944 30.9729 124.787 30.9461 124.641 30.8885C124.495 30.8309 124.364 30.744 124.255 30.6334C124.146 30.5228 124.063 30.391 124.01 30.2467C123.958 30.1025 123.937 29.949 123.95 29.7964V14.6702C123.946 14.4134 124.024 14.1619 124.173 13.95C124.252 13.8387 124.353 13.7439 124.47 13.6713C124.659 13.556 124.878 13.4963 125.101 13.4992C125.263 13.495 125.425 13.5259 125.573 13.5898C125.722 13.6537 125.854 13.7489 125.96 13.8686C126.151 14.0936 126.253 14.3774 126.247 14.6688L126.243 21.0023ZM158.077 15.6037H152.868V29.7911C152.872 30.0478 152.794 30.2993 152.645 30.5113C152.566 30.6225 152.465 30.7173 152.348 30.79C152.159 30.9052 151.94 30.965 151.717 30.962C151.555 30.9663 151.393 30.9353 151.245 30.8714C151.096 30.8075 150.964 30.7123 150.858 30.5926C150.672 30.3708 150.573 30.0929 150.577 29.8071V15.613H145.368C145.227 15.6132 145.087 15.5855 144.958 15.5318C144.828 15.478 144.711 15.3993 144.614 15.3003C144.517 15.2014 144.441 15.0842 144.391 14.9559C144.342 14.8277 144.32 14.691 144.326 14.5541C144.325 14.2821 144.434 14.0206 144.627 13.8246C144.728 13.7236 144.848 13.6439 144.982 13.5906C145.116 13.5374 145.259 13.5117 145.403 13.5152H158.08C158.222 13.5117 158.363 13.5364 158.494 13.5877C158.626 13.639 158.745 13.7158 158.845 13.8136C158.945 13.9113 159.024 14.0279 159.076 14.1562C159.128 14.2844 159.152 14.4216 159.148 14.5595C159.151 14.697 159.126 14.8337 159.074 14.9616C159.022 15.0896 158.945 15.2063 158.846 15.305C158.744 15.4012 158.623 15.4767 158.491 15.5271C158.358 15.5774 158.217 15.6017 158.075 15.5984L158.077 15.6037ZM164.538 22.2493C164.454 19.9549 165.209 17.7059 166.669 15.9025C167.449 15.0341 168.42 14.3473 169.509 13.8928C170.599 13.4383 171.779 13.2276 172.964 13.2765C174.148 13.2322 175.327 13.4449 176.415 13.8991C177.504 14.3533 178.475 15.0377 179.258 15.9025C180.723 17.7037 181.48 19.9539 181.394 22.2493C181.477 24.5436 180.722 26.7923 179.262 28.5961C178.482 29.4644 177.511 30.1515 176.422 30.6069C175.333 31.0622 174.152 31.2743 172.968 31.2274C171.784 31.2717 170.605 31.059 169.516 30.6048C168.428 30.1506 167.456 29.4663 166.673 28.6015C165.211 26.7968 164.454 24.5459 164.538 22.2493ZM166.887 22.2493C166.813 24.0159 167.364 25.7538 168.45 27.1718C168.999 27.8142 169.692 28.3249 170.477 28.6642C171.261 29.0035 172.116 29.1623 172.973 29.1283C173.825 29.158 174.673 28.9976 175.451 28.6594C176.23 28.3212 176.918 27.8142 177.464 27.1771C178.55 25.7575 179.102 24.0177 179.027 22.2493C179.101 20.4827 178.549 18.7449 177.464 17.3268C176.92 16.6868 176.232 16.1767 175.454 15.8357C174.675 15.4947 173.827 15.3319 172.973 15.3597C172.121 15.3299 171.274 15.4903 170.495 15.8285C169.717 16.1667 169.029 16.6737 168.483 17.3108C167.396 18.7302 166.844 20.4702 166.92 22.2386L166.887 22.2493ZM200.143 18.7418C200.188 19.5962 200.014 20.448 199.637 21.2211C199.261 21.9941 198.693 22.6645 197.986 23.1722C196.524 24.107 194.799 24.5733 193.051 24.5058C192.397 24.506 191.743 24.469 191.093 24.3951L190.852 24.3445V29.8071C190.857 30.0947 190.758 30.3747 190.571 30.5979C190.464 30.7183 190.331 30.814 190.182 30.8779C190.032 30.9418 189.87 30.9724 189.706 30.9674C189.544 30.9716 189.382 30.9406 189.234 30.8768C189.085 30.8129 188.953 30.7176 188.847 30.5979C188.656 30.373 188.555 30.0892 188.56 29.7978V14.9369C188.548 14.7212 188.591 14.5059 188.687 14.3109C188.783 14.116 188.928 13.9478 189.109 13.822C189.186 13.7684 189.27 13.7237 189.358 13.6886C189.449 13.6556 189.543 13.6319 189.639 13.6179C190.333 13.5219 190.947 13.4605 191.551 13.4205C192.167 13.3845 192.766 13.3698 193.422 13.3698C195.105 13.2729 196.777 13.6892 198.205 14.5608C198.851 15.0464 199.363 15.6791 199.698 16.4032C200.033 17.1272 200.179 17.9203 200.124 18.7125L200.143 18.7418ZM193.426 15.4877C192.864 15.4877 192.385 15.4877 191.942 15.5237C191.578 15.5349 191.214 15.5652 190.854 15.6144V22.2453L191.525 22.3213H191.749C192.212 22.3613 192.697 22.3867 193.145 22.3867C193.884 22.4604 194.629 22.3663 195.324 22.1117C196.018 21.8571 196.642 21.449 197.147 20.9196C197.309 20.7034 197.441 20.4665 197.537 20.2155C197.712 19.7375 197.796 19.2329 197.787 18.7258C197.822 18.2602 197.74 17.7933 197.547 17.3656C197.354 16.938 197.058 16.5626 196.682 16.2719C195.711 15.677 194.57 15.3968 193.425 15.4717L193.426 15.4877ZM209.245 14.6875V26.7397L218.801 14.122C218.916 13.9721 219.055 13.8404 219.212 13.7313C219.417 13.5896 219.663 13.5136 219.915 13.5139C220.078 13.509 220.239 13.5414 220.387 13.6083C220.535 13.6752 220.664 13.7749 220.765 13.8993C220.932 14.1261 221.019 14.4003 221.01 14.6795V29.8071C221.015 30.0947 220.916 30.3747 220.729 30.5979C220.622 30.7183 220.489 30.814 220.34 30.8779C220.19 30.9418 220.028 30.9724 219.864 30.9674C219.707 30.9729 219.55 30.9461 219.405 30.8885C219.259 30.8309 219.127 30.744 219.018 30.6334C218.91 30.5228 218.826 30.391 218.774 30.2467C218.721 30.1025 218.7 29.949 218.713 29.7964V17.7069L209.105 30.3766C208.989 30.5285 208.85 30.6632 208.694 30.7767C208.499 30.9152 208.264 30.9899 208.022 30.99C207.869 30.9922 207.716 30.96 207.577 30.896C207.438 30.8319 207.316 30.7377 207.22 30.6206C207.04 30.3913 206.947 30.1089 206.954 29.8204V14.6702C206.951 14.4134 207.029 14.1619 207.178 13.95C207.257 13.8387 207.358 13.7439 207.475 13.6713C207.664 13.556 207.883 13.4963 208.106 13.4992C208.268 13.495 208.43 13.5259 208.578 13.5898C208.727 13.6537 208.859 13.7489 208.965 13.8686C209.156 14.0936 209.258 14.3774 209.252 14.6688L209.245 14.6875ZM233.41 28.4654C233.805 27.9103 234.123 27.3078 234.359 26.673L227.898 15.425C227.771 15.2375 227.687 15.0253 227.652 14.8031C227.617 14.581 227.632 14.3541 227.695 14.138C227.735 14.0439 227.789 13.9565 227.857 13.8793C227.929 13.7975 228.013 13.7273 228.107 13.6713H228.144C228.29 13.5851 228.456 13.5354 228.627 13.5266C228.798 13.5177 228.969 13.55 229.124 13.6206C229.409 13.7428 229.652 13.9435 229.822 14.198L229.874 14.2847L235.501 24.2871L239.75 14.4528C239.814 14.232 239.937 14.0313 240.105 13.8704C240.273 13.7096 240.481 13.5941 240.709 13.5352C240.808 13.5214 240.908 13.5214 241.007 13.5352C241.107 13.5493 241.205 13.5748 241.299 13.6112H241.33C241.491 13.6745 241.629 13.7814 241.729 13.919C241.828 14.0566 241.885 14.2192 241.892 14.3874C241.907 14.6511 241.86 14.9146 241.755 15.1583L237.056 25.9608C236.544 27.293 235.877 28.5635 235.066 29.7471C234.744 30.214 234.307 30.5947 233.794 30.8543C233.282 31.1139 232.71 31.244 232.133 31.2328C231.551 31.2245 230.974 31.1259 230.425 30.9407C230.309 30.9007 230.19 30.854 230.075 30.8073C229.959 30.7579 229.846 30.7022 229.737 30.6406C229.533 30.5442 229.358 30.3977 229.23 30.2155C229.102 30.0332 229.025 29.8217 229.007 29.6017C228.996 29.5158 228.996 29.4289 229.007 29.343C229.028 29.2552 229.059 29.1702 229.1 29.0896C229.172 28.934 229.289 28.8027 229.438 28.7125C229.586 28.6222 229.759 28.577 229.934 28.5828C230.208 28.5945 230.476 28.6565 230.726 28.7655L230.893 28.8362C231.285 29.0285 231.716 29.1324 232.155 29.1403C232.406 29.1385 232.654 29.0755 232.874 28.9569C233.094 28.8384 233.28 28.668 233.416 28.4614L233.41 28.4654ZM43.2448 0C43.4845 0 43.7145 0.0926658 43.884 0.257612C44.0535 0.422558 44.1488 0.646273 44.1488 0.879543C44.1488 1.11281 44.0535 1.33653 43.884 1.50147C43.7145 1.66642 43.4845 1.75909 43.2448 1.75909C42.7343 1.76417 42.227 1.83731 41.7369 1.97647C40.2264 2.41958 38.8612 3.23934 37.7768 4.35437C37.2829 4.85543 36.8673 5.42429 36.5431 6.04277C37.5285 6.46646 38.3214 7.22509 38.7734 8.17661C38.9988 8.57815 39.1041 9.03308 39.0775 9.48988C39.0508 9.94668 38.8933 10.3871 38.6226 10.7612C38.3722 11.067 38.0324 11.2916 37.648 11.4054C37.2812 11.5144 36.8918 11.5301 36.5171 11.4507C36.0064 11.3268 35.5411 11.0673 35.1732 10.7011C34.8053 10.3349 34.5492 9.87646 34.4335 9.3769C34.3023 8.92654 34.2359 8.46067 34.2361 7.99257C34.2366 7.72468 34.2577 7.4572 34.2992 7.19238C33.9204 7.13159 33.5371 7.10126 33.1532 7.10169C32.7675 7.10088 32.3824 7.13121 32.0018 7.19238C32.0433 7.45721 32.0644 7.72468 32.0649 7.99257C32.065 8.46022 31.9985 8.92564 31.8675 9.37556C31.7518 9.87512 31.4957 10.3336 31.1278 10.6998C30.7599 11.066 30.2946 11.3255 29.7839 11.4494C29.4271 11.5244 29.0568 11.5139 28.7051 11.4187H28.6476C28.2632 11.3049 27.9233 11.0803 27.6729 10.7746C27.4013 10.401 27.2426 9.96083 27.215 9.50399C27.1874 9.04716 27.2919 8.59193 27.5167 8.18995C27.9686 7.23843 28.7615 6.4798 29.7469 6.05611C29.4228 5.43762 29.0071 4.86876 28.5132 4.36771C27.424 3.25128 26.0528 2.4323 24.5367 1.99247C24.0466 1.85337 23.5393 1.78023 23.0288 1.77509C22.7891 1.77509 22.5591 1.68242 22.3896 1.51748C22.22 1.35253 22.1248 1.12882 22.1248 0.895546C22.1248 0.662277 22.22 0.438562 22.3896 0.273616C22.5591 0.10867 22.7891 0.0160038 23.0288 0.0160038C23.6966 0.017722 24.3611 0.107448 25.0041 0.282734C26.8329 0.810958 28.4873 1.79692 29.8017 3.14208C30.4846 3.83045 31.0463 4.62345 31.4645 5.48931C32.0223 5.38466 32.5892 5.33285 33.1574 5.3346C33.7205 5.33417 34.2824 5.38687 34.8352 5.49197C35.2453 4.62785 35.7982 3.83494 36.4719 3.14475C37.7863 1.79959 39.4407 0.813626 41.2695 0.285401C41.9116 0.103801 42.5761 0.0077923 43.2448 0V0ZM38.3621 20.6462C38.2167 20.4614 38.1527 20.228 38.1842 19.9973C38.2157 19.7665 38.3401 19.5574 38.53 19.416C38.72 19.2745 38.9599 19.2122 39.1971 19.2428C39.4342 19.2735 39.6492 19.3945 39.7946 19.5793C40.1293 20.0068 40.4876 20.4164 40.8679 20.8063C41.2182 21.1641 41.5888 21.5025 41.9782 21.8199C43.6279 23.2031 45.6589 24.0842 47.819 24.3538C49.5275 24.6251 51.2784 24.2634 52.7263 23.3402C53.2846 22.9582 53.7215 22.4315 53.9874 21.8199C54.2213 21.2537 54.256 20.6281 54.0861 20.0408C54.03 19.8386 53.9552 19.6417 53.8627 19.4526C52.762 19.585 51.6524 19.6323 50.5441 19.594C50.1191 19.5876 49.6948 19.5573 49.2734 19.5033C48.8621 19.458 48.4509 19.402 48.0397 19.3259C47.3591 19.288 46.7013 19.0739 46.1343 18.7058C45.5672 18.3377 45.1115 17.829 44.8143 17.2321C44.6274 16.781 44.5962 16.283 44.7252 15.8131C44.8571 15.3491 45.1317 14.9354 45.512 14.6275C46.0715 14.2481 46.719 14.0097 47.3965 13.9336C48.074 13.8575 48.7603 13.946 49.394 14.1914C49.8626 14.3376 50.3233 14.5068 50.7743 14.6982C51.2861 14.9155 51.7805 15.1696 52.2534 15.4583C53.2104 16.0238 54.0599 16.7457 54.7646 17.5922C55.3636 17.4908 55.9572 17.3588 56.5315 17.2121L56.9633 17.0961L57.3951 16.9627C58.1175 16.7359 58.8225 16.4596 59.5047 16.1358C59.8899 15.9531 60.2765 15.7451 60.6452 15.5277C61.0393 15.2909 61.42 15.0336 61.7857 14.7568C63.5676 13.4032 65.0261 11.5027 64.2969 9.45958C64.0481 8.84681 63.6333 8.31112 63.0964 7.90953C62.5596 7.50794 61.9209 7.25549 61.2483 7.17904C59.6836 6.92965 58.0861 6.9468 56.5274 7.22972C54.9387 7.48659 53.3714 7.85611 51.8381 8.33532C45.2941 10.376 39.3228 13.8593 34.3897 18.5137L34.635 18.7805C35.8324 20.108 36.8887 21.5499 37.7878 23.0842C38.6572 24.5587 39.3228 26.1385 39.7672 27.7826C40.5253 30.9098 40.5253 34.1657 39.7672 37.2929C39.6016 37.9395 39.3872 38.5734 39.1256 39.1893C38.8689 39.7952 38.5531 40.3758 38.1826 40.9231L37.9852 41.2018C37.4724 41.9298 36.8321 42.5645 36.0935 43.0769C35.2032 43.6864 34.139 44.0091 33.0504 43.9998C31.9654 43.9695 30.916 43.6157 30.0444 42.9862C29.2917 42.4406 28.6443 41.7697 28.1322 41.0044C27.0473 39.3306 26.3651 37.44 26.1363 35.4738C26.0527 34.8963 25.9993 34.3135 25.9691 33.7294C25.9378 33.1567 25.9378 32.5829 25.9691 32.0103C26.0051 30.5954 26.1972 29.1883 26.5421 27.8133C27.5524 24.3491 29.3995 21.1702 31.9292 18.5417C25.8414 12.7379 18.1328 8.8052 9.76398 7.23372C8.20525 6.95091 6.60786 6.93376 5.04309 7.18304C4.36859 7.25564 3.72759 7.50727 3.19017 7.91042C2.65275 8.31357 2.2396 8.85272 1.99589 9.46892V9.5196C1.8769 9.86792 1.81717 10.2328 1.81906 10.5999C1.819 10.9621 1.87728 11.3221 1.99178 11.6668C2.66345 13.6286 4.9252 15.2503 6.78944 16.1425L7.16502 16.3145L7.57625 16.4866C8.29254 16.7865 9.02896 17.0387 9.78043 17.2414C10.156 17.3375 10.5261 17.4241 10.8853 17.5002L11.5309 17.6215C12.2418 16.7666 13.1004 16.0386 14.0682 15.4703C14.5361 15.1805 15.0254 14.9246 15.5321 14.7048C15.9832 14.5134 16.4439 14.3442 16.9125 14.198C17.5465 13.9427 18.2374 13.85 18.9188 13.9289C19.6002 14.0079 20.2494 14.2557 20.8041 14.6488C21.1844 14.9568 21.4589 15.3704 21.5909 15.8344C21.7195 16.3044 21.6882 16.8022 21.5018 17.2534C21.1953 17.8429 20.7392 18.3464 20.1766 18.7164C19.6141 19.0863 18.9638 19.3103 18.2874 19.3673C16.3538 19.7017 14.379 19.7466 12.4315 19.5006C12.3389 19.6897 12.2641 19.8866 12.208 20.0888C12.0377 20.6761 12.0724 21.3018 12.3067 21.8679C12.5726 22.4795 13.0095 23.0062 13.5678 23.3882C15.0146 24.3104 16.7639 24.672 18.471 24.4018C18.8444 24.3573 19.2151 24.2932 19.5814 24.2098C19.966 24.1223 20.3454 24.0141 20.7177 23.8857C23.0346 23.0435 25.0442 21.5542 26.4941 19.6047C26.5661 19.5132 26.6559 19.4363 26.7584 19.3786C26.861 19.3209 26.9742 19.2833 27.0916 19.2682C27.209 19.253 27.3283 19.2605 27.4428 19.2902C27.5572 19.3199 27.6646 19.3712 27.7586 19.4413C27.8527 19.5113 27.9316 19.5987 27.991 19.6985C28.0503 19.7982 28.0889 19.9084 28.1045 20.0226C28.1201 20.1368 28.1124 20.253 28.0818 20.3643C28.0513 20.4757 27.9985 20.5801 27.9265 20.6716C26.2659 22.8937 23.9673 24.5886 21.3195 25.5434C20.8843 25.694 20.4409 25.8209 19.9912 25.9235C19.5616 26.0205 19.1269 26.0949 18.689 26.1462C16.5258 26.4677 14.3175 25.9844 12.5041 24.7926C11.6728 24.223 11.023 23.4373 10.6289 22.5254C10.2448 21.607 10.1845 20.5906 10.4576 19.6353C10.4954 19.4912 10.5412 19.3492 10.5947 19.2099H10.5248C10.1044 19.121 9.70321 19.0281 9.32123 18.9312C8.50322 18.717 7.70089 18.4497 6.91966 18.131L6.46594 17.9389L6.02318 17.7376C3.81352 16.6826 1.13643 14.7008 0.281073 12.2216C0.100419 11.7006 0.00557946 11.155 6.72036e-05 10.6052C-0.00285881 10.0448 0.0897824 9.48773 0.274219 8.9568V8.88612C0.614128 7.98054 1.20282 7.18302 1.97622 6.58035C2.74962 5.97767 3.67811 5.59292 4.66065 5.46797C6.43795 5.17526 8.25419 5.18745 10.0272 5.50398C18.7475 7.14084 26.7831 11.2296 33.1395 17.2641C38.2768 12.4203 44.4929 8.79437 51.3048 6.66825C52.9284 6.16381 54.5878 5.77601 56.2697 5.50798C58.0425 5.19012 59.8587 5.17658 61.6362 5.46797C62.6178 5.59521 63.545 5.98066 64.3179 6.58277C65.0909 7.18488 65.6803 7.98081 66.0227 8.88478C67.0644 11.8348 65.2304 14.3901 62.896 16.1385C62.4767 16.4551 62.0402 16.7494 61.5883 17.0201C61.1345 17.2934 60.6973 17.5268 60.2956 17.7202C59.5338 18.0797 58.7469 18.3863 57.9407 18.6378L57.4664 18.7791L56.9921 18.9125C56.5699 19.0245 56.1381 19.1206 55.6995 19.2112C55.7516 19.3535 55.7973 19.4953 55.8366 19.6367C56.1092 20.592 56.049 21.6082 55.6652 22.5267C55.2712 23.4386 54.6213 24.2243 53.79 24.7939C51.9783 25.9748 49.7769 26.4507 47.6216 26.1276C45.1178 25.8145 42.7631 24.7944 40.8487 23.1935C40.4121 22.8327 39.9965 22.4485 39.604 22.0426C39.1796 21.606 38.7796 21.1475 38.406 20.6689L38.3621 20.6462ZM35.9235 27.3732C35.8553 27.2252 35.8434 27.0585 35.8898 26.9028C35.9362 26.747 36.0379 26.6124 36.1769 26.5228C36.3158 26.4333 36.483 26.3947 36.6485 26.4139C36.8139 26.4331 36.9671 26.5088 37.0805 26.6277L37.1271 26.6837L37.1901 26.7704C37.301 26.9344 37.3605 27.1262 37.3615 27.3225C37.3646 27.3598 37.3646 27.3972 37.3615 27.4345C37.2943 27.9973 36.72 28.4481 35.8344 28.6868C34.9593 28.9111 34.0568 29.0183 33.1519 29.0056C32.2449 29.0169 31.3405 28.9078 30.4638 28.6815C29.5207 28.4148 28.9327 27.936 28.9327 27.3185C28.9295 27.2812 28.9295 27.2438 28.9327 27.2065C28.9447 27.1033 28.9729 27.0026 29.0163 26.9077V26.8624C29.0642 26.7727 29.1236 26.6894 29.1931 26.6143C29.2444 26.5381 29.3106 26.4725 29.388 26.4213C29.4654 26.37 29.5524 26.334 29.644 26.3154C29.7357 26.2969 29.8302 26.296 29.9221 26.313C30.0141 26.33 30.1018 26.3644 30.1801 26.4143C30.2584 26.4642 30.3258 26.5286 30.3785 26.6039C30.4312 26.6792 30.4682 26.7638 30.4873 26.853C30.5064 26.9421 30.5072 27.0341 30.4898 27.1236C30.4724 27.2131 30.437 27.2983 30.3857 27.3745C30.5429 27.3577 30.7019 27.3699 30.8545 27.4105C31.6025 27.5999 32.3735 27.6897 33.1464 27.6773C33.9178 27.6769 34.6856 27.5746 35.4287 27.3732C35.583 27.332 35.744 27.3198 35.903 27.3372L35.9235 27.3732ZM36.7625 31.8036C36.6812 31.658 36.6569 31.4886 36.6943 31.327C36.7316 31.1653 36.8279 31.0224 36.9654 30.9246C37.1029 30.8268 37.2722 30.7809 37.4418 30.7954C37.6115 30.8099 37.77 30.8838 37.8878 31.0034L37.9249 31.0487L37.9619 31.0941L38.029 31.1848C38.1502 31.3623 38.2155 31.5704 38.2168 31.7836C38.2197 31.8191 38.2197 31.8547 38.2168 31.8903C38.1497 32.5237 37.4821 33.0212 36.4348 33.3146C35.3675 33.5889 34.2667 33.7203 33.1628 33.7054C32.0563 33.7209 30.9527 33.5894 29.8826 33.3146C28.786 32.9999 28.1006 32.4677 28.1006 31.7942C28.0981 31.7605 28.0981 31.7266 28.1006 31.6929C28.1129 31.5771 28.1444 31.4641 28.1938 31.3581V31.3328L28.2308 31.2714C28.2793 31.1896 28.3368 31.1131 28.4022 31.0434C28.5201 30.9238 28.6785 30.8499 28.8482 30.8354C29.0178 30.8209 29.1871 30.8668 29.3246 30.9646C29.4621 31.0624 29.5584 31.2053 29.5958 31.367C29.6331 31.5287 29.6089 31.698 29.5276 31.8436L30.2472 32.0516C31.1892 32.292 32.1604 32.4064 33.1341 32.3917C34.105 32.4056 35.0734 32.2912 36.0126 32.0516L36.7323 31.8436L36.7625 31.8036ZM250.61 14.2954L256.379 23.0748L262.073 14.2447C262.187 14.0656 262.33 13.905 262.495 13.7686C262.709 13.6011 262.976 13.5115 263.25 13.5152C263.407 13.5121 263.562 13.5433 263.704 13.6066C263.847 13.6699 263.973 13.7635 264.073 13.8806C264.257 14.1083 264.354 14.3912 264.347 14.6808V29.8071C264.35 30.0638 264.272 30.3153 264.123 30.5273C264.044 30.6381 263.943 30.7328 263.826 30.806C263.637 30.9212 263.418 30.981 263.195 30.978C263.033 30.9823 262.872 30.9513 262.723 30.8874C262.574 30.8235 262.442 30.7283 262.336 30.6086C262.155 30.3802 262.062 30.0967 262.075 29.8084V18.147L257.383 25.3394C257.269 25.5255 257.114 25.6849 256.93 25.8061C256.739 25.9291 256.517 25.9958 256.288 25.9982C256.06 25.9995 255.836 25.938 255.642 25.8208C255.447 25.7006 255.282 25.5398 255.159 25.35L250.469 18.1563V29.8151C250.475 30.0911 250.389 30.3615 250.224 30.5859C250.123 30.7109 249.993 30.8109 249.844 30.8779C249.696 30.9448 249.533 30.9769 249.37 30.9714C249.207 30.9762 249.045 30.9439 248.898 30.8769C248.75 30.81 248.621 30.7103 248.52 30.5859C248.353 30.359 248.267 30.0849 248.275 29.8058V14.6702C248.269 14.3911 248.359 14.1182 248.53 13.894C248.629 13.771 248.757 13.6723 248.903 13.6054C249.048 13.5385 249.208 13.5054 249.369 13.5085C249.641 13.5023 249.907 13.5865 250.124 13.7473C250.319 13.8991 250.483 14.0844 250.609 14.2941L250.61 14.2954ZM52.5358 17.8442C51.7906 17.2018 50.9459 16.6779 50.0328 16.2919C49.6359 16.1236 49.2306 15.9749 48.8183 15.8464C48.4743 15.6902 48.096 15.619 47.717 15.6392C47.338 15.6595 46.9699 15.7705 46.6456 15.9625C46.5435 16.0419 46.4689 16.1499 46.4318 16.2719C46.3941 16.3786 46.3941 16.4945 46.4318 16.6013C46.599 17.0174 47.1816 17.4281 48.3029 17.6149C48.6675 17.6802 49.0376 17.7362 49.4132 17.7776C49.7888 17.8189 50.1849 17.8482 50.5591 17.8589C51.2053 17.8816 51.8523 17.8714 52.4974 17.8282L52.5358 17.8442ZM33.1478 19.8207C30.8679 22.2179 29.2007 25.1042 28.2816 28.2454C27.968 29.4941 27.7934 30.7719 27.7607 32.057V33.644C27.7743 34.177 27.8246 34.7086 27.9115 35.2351C28.1032 36.9438 28.6894 38.5882 29.6263 40.0455C30.0227 40.6324 30.5219 41.147 31.1012 41.5659C31.6758 41.9904 32.3706 42.233 33.0916 42.2607C33.8088 42.2633 34.5088 42.0469 35.0929 41.6419C35.6629 41.2522 36.1584 40.7683 36.5568 40.2122L36.7131 39.9895C37.0287 39.527 37.2972 39.0357 37.515 38.5225C37.7293 37.9915 37.9034 37.4459 38.0359 36.8901C38.7254 34.0449 38.7254 31.0826 38.0359 28.2374C37.6324 26.7441 37.0282 25.3092 36.2388 23.9697C35.3955 22.5396 34.4058 21.196 33.2848 19.9594L33.1656 19.8261L33.1478 19.8207ZM13.7501 17.8643C15.1552 17.9658 16.5677 17.8941 17.9543 17.6509C19.0687 17.4428 19.6526 17.0321 19.8254 16.6373C19.8631 16.5306 19.8631 16.4146 19.8254 16.3079C19.7871 16.1879 19.7126 16.0819 19.6115 16.0038C19.2872 15.8118 18.9192 15.7008 18.5402 15.6806C18.1611 15.6603 17.7828 15.7315 17.4389 15.8878C17.0265 16.0162 16.6212 16.1649 16.2244 16.3332C15.3126 16.7196 14.4688 17.243 13.7241 17.8843L13.7501 17.8643ZM36.051 7.76585V7.98857C36.0497 8.29499 36.0917 8.60014 36.1758 8.89545C36.2082 9.08535 36.2933 9.26306 36.4217 9.40945C36.5502 9.55585 36.7173 9.6654 36.905 9.72631C36.9801 9.74494 37.0588 9.74494 37.1339 9.72631C37.1706 9.71531 37.203 9.69396 37.2271 9.66497C37.3258 9.54894 37.3204 9.28488 37.1339 8.86478C36.904 8.39689 36.5259 8.01311 36.0551 7.76985L36.051 7.76585ZM30.2472 7.76585C29.7785 8.01001 29.4024 8.3937 29.1739 8.86077C28.9861 9.28088 28.9861 9.54494 29.0807 9.66097C29.1065 9.69066 29.1409 9.71205 29.1794 9.72231C29.2481 9.73687 29.3191 9.73687 29.3878 9.72231C29.5744 9.66059 29.7404 9.55069 29.8679 9.40435C29.9953 9.25801 30.0796 9.08073 30.1115 8.89145C30.1957 8.59617 30.2377 8.291 30.2363 7.98457C30.2363 7.91388 30.2363 7.83786 30.2363 7.76718L30.2472 7.76585Z" fill="#4E4C4C"/>
</svg>
