<svg width="24" height="24" viewBox="0 0 24 24" fill="none" xmlns="http://www.w3.org/2000/svg">
<path fill-rule="evenodd" clip-rule="evenodd" d="M6.00174 8.5C6.16841 9.66667 7.10171 12.6 9.50171 13C9.00171 10.1667 9.30171 3.8 14.5017 1C14.6684 2.33333 15.6017 5.2 18.0017 8C20.5732 11 21.2874 14 21.0017 16C20.5858 18.911 18.7865 21.4761 14.7407 22.257C15.5446 21.6253 15.9008 20.7165 15.9847 20.0455C16.0557 19.3636 15.9421 17.6818 14.9197 16.4091C13.8973 15.1364 13.4997 13.6061 13.4287 13C11.2136 14.2727 11.0858 17.1667 11.2988 18.4545C10.2764 18.2727 9.87883 17.1667 9.80783 16.6364C8.54125 18.6636 8.80457 21.1931 10.3354 22.3581C4.1506 21.2616 2.3144 14.031 6.00174 8.5Z" fill="#F0A500"/>
</svg>
