<svg width="24" height="21" viewBox="0 0 24 21" fill="none" xmlns="http://www.w3.org/2000/svg">
<path d="M20.8382 3.11012C20.3274 2.59912 19.721 2.19376 19.0535 1.9172C18.3861 1.64064 17.6707 1.49829 16.9482 1.49829C16.2257 1.49829 15.5103 1.64064 14.8428 1.9172C14.1754 2.19376 13.5689 2.59912 13.0582 3.11012L11.9982 4.17012L10.9382 3.11012C9.90647 2.07842 8.5072 1.49883 7.04817 1.49883C5.58913 1.49883 4.18986 2.07842 3.15817 3.11012C2.12647 4.14181 1.54688 5.54108 1.54688 7.00012C1.54687 8.45915 2.12647 9.85842 3.15817 10.8901L4.21817 11.9501L11.9982 19.7301L19.7782 11.9501L20.8382 10.8901C21.3492 10.3794 21.7545 9.77293 22.0311 9.10547C22.3076 8.43801 22.45 7.7226 22.45 7.00012C22.45 6.27763 22.3076 5.56222 22.0311 4.89476C21.7545 4.2273 21.3492 3.62087 20.8382 3.11012V3.11012Z" stroke="#4E4C4C" stroke-width="2" stroke-linecap="round" stroke-linejoin="round"/>
</svg>
