<svg width="22" height="13" viewBox="0 0 22 13" fill="none" xmlns="http://www.w3.org/2000/svg">
<path d="M8.34178 12.7821L6.41078 12.2641L7.19778 9.32511C6.01975 8.89064 4.9249 8.25747 3.96078 7.45311L1.80778 9.60711L0.392781 8.19211L2.54678 6.03911C1.33086 4.58287 0.513869 2.83587 0.175781 0.969107L2.14378 0.610107C2.90278 4.81211 6.57878 8.00011 10.9998 8.00011C15.4198 8.00011 19.0968 4.81211 19.8558 0.610107L21.8238 0.968107C21.4861 2.83512 20.6695 4.58248 19.4538 6.03911L21.6068 8.19211L20.1918 9.60711L18.0388 7.45311C17.0747 8.25747 15.9798 8.89064 14.8018 9.32511L15.5888 12.2651L13.6578 12.7821L12.8698 9.84211C11.6321 10.0542 10.3674 10.0542 9.12978 9.84211L8.34178 12.7821Z" fill="#BDC2CC"/>
</svg>
