<svg width="24" height="24" viewBox="0 0 24 24" fill="none" xmlns="http://www.w3.org/2000/svg">
<path fill-rule="evenodd" clip-rule="evenodd" d="M21.9901 2.83705L19.1329 19.9799C19.0957 20.1957 18.9767 20.3631 18.7758 20.4821C18.6716 20.5417 18.5563 20.5714 18.4298 20.5714C18.348 20.5714 18.2587 20.5528 18.162 20.5156L13.1062 18.4509L10.4053 21.7433C10.2713 21.9144 10.089 22 9.85838 22C9.76166 22 9.67981 21.9851 9.61285 21.9554C9.47148 21.9033 9.35801 21.8158 9.27245 21.6931C9.18688 21.5703 9.1441 21.4345 9.1441 21.2857V17.3906L18.787 5.57143L6.85615 15.8951L2.44767 14.0871C2.17237 13.9829 2.02356 13.7783 2.00124 13.4732C1.98636 13.1756 2.10541 12.9561 2.35838 12.8147L20.9298 2.10045C21.0414 2.03348 21.1605 2 21.287 2C21.4358 2 21.5697 2.04092 21.6887 2.12277C21.9343 2.30134 22.0347 2.53943 21.9901 2.83705Z" fill="#4E4C4C"/>
</svg>
