<svg width="24" height="24" viewBox="0 0 24 24" fill="none" xmlns="http://www.w3.org/2000/svg">
<path fill-rule="evenodd" clip-rule="evenodd" d="M13.177 18.3838C13.177 18.3838 13.6101 18.3366 13.832 18.1027C14.0351 17.8884 14.028 17.4839 14.028 17.4839C14.028 17.4839 14.001 15.5954 14.8943 15.3166C15.7747 15.0423 16.9051 17.1429 18.1048 17.9506C19.011 18.5613 19.6989 18.4276 19.6989 18.4276L22.9046 18.3838C22.9046 18.3838 24.5809 18.2824 23.7862 16.9885C23.7204 16.8825 23.3225 16.031 21.4033 14.2819C19.3925 12.451 19.6625 12.7471 22.0829 9.57957C23.5573 7.65073 24.1465 6.47314 23.9622 5.96961C23.7873 5.48798 22.7027 5.61587 22.7027 5.61587L19.0943 5.63777C19.0943 5.63777 18.8267 5.60205 18.6283 5.71842C18.4346 5.83249 18.309 6.09866 18.309 6.09866C18.309 6.09866 17.7385 7.59081 16.9767 8.86058C15.3697 11.5384 14.7276 11.6801 14.4647 11.5142C13.8531 11.1259 14.0057 9.95635 14.0057 9.12559C14.0057 6.5296 14.4072 5.44765 13.2251 5.16765C12.8331 5.07432 12.5443 5.01325 11.5407 5.00288C10.253 4.99021 9.16363 5.00749 8.54619 5.30362C8.13535 5.50065 7.81841 5.9408 8.0121 5.96615C8.25039 5.99726 8.79035 6.10903 9.07677 6.49157C9.44653 6.98588 9.43362 8.09434 9.43362 8.09434C9.43362 8.09434 9.64608 11.1501 8.93708 11.5292C8.45111 11.7896 7.78437 11.2584 6.35111 8.82831C5.61746 7.5839 5.06341 6.20812 5.06341 6.20812C5.06341 6.20812 4.95659 5.95117 4.76525 5.81291C4.53401 5.64583 4.2112 5.59398 4.2112 5.59398L0.78241 5.61587C0.78241 5.61587 0.267094 5.6297 0.0781054 5.84978C-0.0897538 6.04451 0.0651932 6.44894 0.0651932 6.44894C0.0651932 6.44894 2.74977 12.6146 5.79001 15.7222C8.57789 18.5705 11.7426 18.3838 11.7426 18.3838H13.177Z" fill="#4E4C4C"/>
</svg>
